<svg width="30" height="30" viewBox="0 0 30 30" fill="none" xmlns="http://www.w3.org/2000/svg">
<rect width="30" height="30" fill="#EDEAE3"/>
<path d="M21.875 10.625H8.125C7.77982 10.625 7.5 10.9048 7.5 11.25V21.25C7.5 21.5952 7.77982 21.875 8.125 21.875H21.875C22.2202 21.875 22.5 21.5952 22.5 21.25V11.25C22.5 10.9048 22.2202 10.625 21.875 10.625Z" stroke="#333333" stroke-width="1.5" stroke-linecap="round" stroke-linejoin="round"/>
<path d="M11.875 13.125V10.625C11.875 9.7962 12.2042 9.00134 12.7903 8.41529C13.3763 7.82924 14.1712 7.5 15 7.5C15.8288 7.5 16.6237 7.82924 17.2097 8.41529C17.7958 9.00134 18.125 9.7962 18.125 10.625V13.125" stroke="#333333" stroke-width="1.5" stroke-linecap="round" stroke-linejoin="round"/>
</svg>
