<svg width="30" height="30" viewBox="0 0 30 30" fill="none" xmlns="http://www.w3.org/2000/svg">
<rect width="30" height="30" fill="#EDEAE3"/>
<path d="M15.4419 21.5533L21.7726 15.2227C23.3281 13.6672 23.5576 11.1081 22.0855 9.47343C21.7168 9.06277 21.2683 8.73155 20.7673 8.49997C20.2664 8.26839 19.7235 8.1413 19.1718 8.12647C18.6201 8.11163 18.0712 8.20936 17.5585 8.41368C17.0458 8.618 16.5801 8.92464 16.1899 9.31488L15 10.5048L13.9727 9.47742C12.4172 7.92192 9.85814 7.69243 8.22343 9.16446C7.81277 9.53318 7.48155 9.9817 7.24997 10.4827C7.01839 10.9836 6.8913 11.5265 6.87647 12.0782C6.86163 12.6299 6.95936 13.1788 7.16368 13.6915C7.368 14.2042 7.67464 14.6699 8.06488 15.0601L14.5581 21.5533C14.6753 21.6705 14.8342 21.7364 15 21.7364C15.1658 21.7364 15.3247 21.6705 15.4419 21.5533V21.5533Z" stroke="#1F242E" stroke-width="1.5" stroke-linecap="round" stroke-linejoin="round"/>
</svg>
